<?xml version="1.0" encoding="UTF-8" standalone="no"?>
<svg
   xmlns:dc="http://purl.org/dc/elements/1.1/"
   xmlns:cc="http://creativecommons.org/ns#"
   xmlns:rdf="http://www.w3.org/1999/02/22-rdf-syntax-ns#"
   xmlns:svg="http://www.w3.org/2000/svg"
   xmlns="http://www.w3.org/2000/svg"
   id="svg2"
   version="1.1"
   viewBox="0 0 708.66141 566.92915"
   height="160mm"
   width="200mm">
  <metadata
     id="metadata20">
    <rdf:RDF>
      <cc:Work
         rdf:about="">
        <dc:format>image/svg+xml</dc:format>
        <dc:type
           rdf:resource="http://purl.org/dc/dcmitype/StillImage" />
        <dc:title>Slice</dc:title>
      </cc:Work>
    </rdf:RDF>
  </metadata>
  <!-- Generator: Sketch 40.1 (33804) - http://www.bohemiancoding.com/sketch -->
  <title
     id="title4">Slice</title>
  <desc
     id="desc6">Created with Sketch.</desc>
  <defs
     id="defs8" />
  <g
     transform="translate(0.00174114,106.92735)"
     style="fill:none;fill-rule:evenodd;stroke:none;stroke-width:1"
     id="Page-1">
    <path
       style="fill:#d8d8d8;stroke:#0000ff;stroke-width:0.01255479;stroke-miterlimit:4;stroke-dasharray:none"
       id="Combined-Shape"
       d="m 418.10876,-106.92107 c 3.91372,0 7.08644,3.17081 7.08644,7.084486 l 0,552.747794 c 0,3.9127 -3.17126,7.0843 -7.08644,7.0843 l -269.28547,0 c -3.91374,0 -7.08647,-3.1707 -7.08647,-7.0843 l 0,-552.747794 c 0,-3.912676 3.17123,-7.084486 7.08647,-7.084486 l 269.28547,0 z m -170.07506,14.527236 70.86467,0 0,10.62968 -70.86467,0 0,-10.62968 z m 0,524.397844 70.86467,0 0,10.6298 -70.86467,0 0,-10.6298 z" />
    <path
       style="fill:#d8d8d8;stroke:#0000ff;stroke-width:0.0012555;stroke-miterlimit:4;stroke-dasharray:none"
       id="path12"
       d="m 701.57246,-106.92664 c 3.9138,0 7.08659,3.17089 7.08659,7.084591 l 0,552.758609 c 0,3.9128 -3.17129,7.0846 -7.08659,7.0846 l -269.29014,0 c -3.91389,0 -7.08658,-3.1709 -7.08658,-7.0846 l 0,-552.758609 c 0,-3.912701 3.17119,-7.084591 7.08658,-7.084591 l 269.29014,0 z m -170.07802,14.527491 70.86584,0 0,10.6299 -70.86584,0 0,-10.6299 z m 0,524.408309 70.86584,0 0,10.6299 -70.86584,0 0,-10.6299 z m -21.25979,-485.786309 113.38539,0 0,460.628909 -113.38539,0 0,-460.628909 z" />
    <rect
       style="fill:#d8d8d8;stroke:#0000ff;stroke-width:0.00354331;stroke-miterlimit:4;stroke-dasharray:none"
       height="240.94489"
       width="141.73228"
       y="56.063"
       x="3.051505e-05"
       id="Rectangle-4" />
    <polygon
       transform="matrix(0.35432757,0,0,0.35432757,-0.00111339,297.01047)"
       style="fill:#d8d8d8;stroke:#0000ff;stroke-width:0.00354331;stroke-miterlimit:4;stroke-dasharray:none"
       points="400,430.10292 299.68519,429.47235 299.26544,460 99.895064,460 99.895064,430.10292 0,430.10292 0,30.890123 99.895064,31.114446 99.895064,0 299.26544,0 299.68519,30.890123 400,30.890123 "
       id="Path-2" />
    <polygon
       transform="matrix(0.35432757,0,0,0.35432757,-0.00111339,-510.85996)"
       style="fill:#d8d8d8;stroke:#0000ff;stroke-width:0.00354331;stroke-miterlimit:4;stroke-dasharray:none"
       points="299.68519,1170.8901 400,1170.8901 400,1570.1029 299.68519,1569.4724 299.26544,1600 99.895064,1600 99.895064,1570.1029 0,1570.1029 0,1170.8901 99.895064,1171.1145 99.895064,1140 299.26544,1140 "
       id="polygon16" />
    <rect
       y="1004.0018"
       x="879.99823"
       height="1188"
       width="636"
       id="rect4148"
       style="stroke-width:0.00354331;stroke-miterlimit:4;stroke-dasharray:none" />
  </g>
</svg>
